<svg xmlns="http://www.w3.org/2000/svg" version="1.1" xmlns:xlink="http://www.w3.org/1999/xlink" xmlns:svgjs="http://svgjs.dev/svgjs"
width="1500" height="511" viewBox="0 0 1500 511"><g transform="matrix(1,0,0,1,-0.9090909090911055,-21.44947063469067)"><svg 
viewBox="0 0 396 135" data-background-color="#d1abff" preserveAspectRatio="xMidYMid meet" height="511" width="1500"
 xmlns="http://www.w3.org/2000/svg" xmlns:xlink="http://www.w3.org/1999/xlink"><g id="tight-bounds" 
 transform="matrix(1,0,0,1,0.24000000000003752,5.668004027419158)"><svg viewBox="0 0 395.5199999999999 129.11570831956183"
  height="129.11570831956183" width="395.5199999999999"><g><svg viewBox="0 0 631.4144442193982 206.12237866249512"
   height="129.11570831956183" width="395.5199999999999"><g transform="matrix(1,0,0,1,235.89444421939825,63.69480685177943)">
   
   <svg viewBox="0 0 395.52 78.73276495893626" height="78.73276495893626" width="395.52"><g id="textblocktransform">
   <svg viewBox="0 0 395.52 78.73276495893626" height="78.73276495893626" width="395.52" id="textblock"><g>
   <svg viewBox="0 0 395.52 78.73276495893626" height="78.73276495893626" width="395.52"><g transform="matrix(1,0,0,1,0,0)">
   <svg width="395.52" viewBox="1.65 -25.15 127.84 25.45" height="78.73276495893626" data-palette-color="#ffc107b9">
   <path d="M37.45-24.9L28.15 0 24.15 0 19.25-13.6 18.95-13.6 13.8 0 9.8 0 1.65-24.9 5.4-24.9 5.85-22.25 11.95-4.15 12.2-4.15 17.65-18.7 15.6-24.9 19.5-24.9 20.05-21.95 26.15-4.15 26.45-4.15 33.2-22.05 33.8-24.9 37.45-24.9ZM53.55-24.9L62.3 0 58.55 0 57.95-2.7 56.65-6.4 50.7-6.45 45.4-6.4 44.05-2.9 43.35 0 39.65 0 49.25-24.9 53.55-24.9ZM51-9.4L55.6-9.45 51.45-21.25 51.15-21.25 46.6-9.45 51-9.4ZM81.3-24.9L81.5-24.6 81.25-21.45 76.6-21.8 74.1-21.8 73.95-7.8 74.1 0 70.35 0 70.5-7.5 70.4-21.8 67.9-21.8 63.15-21.45 62.85-21.8 63.15-24.9 81.3-24.9ZM95.29-25.15Q99.44-25.15 102.49-23.4L102.49-23.4 101.79-19.95 101.34-19.8Q100.09-20.85 98.44-21.45 96.79-22.05 94.89-22.05L94.89-22.05Q91.19-22.05 89.24-19.68 87.29-17.3 87.29-12.6L87.29-12.6Q87.29-7.85 89.24-5.35 91.19-2.85 94.89-2.85L94.89-2.85Q96.69-2.85 98.52-3.48 100.34-4.1 101.79-5.15L101.79-5.15 102.24-5 101.89-1.55Q98.49 0.3 94.74 0.3L94.74 0.3Q89.24 0.3 86.29-2.98 83.34-6.25 83.34-12.3L83.34-12.3Q83.34-18.45 86.47-21.8 89.59-25.15 95.29-25.15L95.29-25.15ZM129.49-24.9L129.34-7.8 129.44 0 125.74 0 125.89-7.5 125.84-10.9 112.29-10.85 112.24-7.8 112.34 0 108.64 0 108.79-7.5 108.64-24.9 112.39-24.9 112.29-14.2 119.04-14.15 125.84-14.2 125.74-24.9 129.49-24.9Z" opacity="1"
 transform="matrix(1,0,0,1,0,0)" fill="#ffc107b9"
  class="wordmark-text-0" data-fill-palette-color="primary"
   id="text-0"></path></svg></g></svg></g></svg></g></svg></g><g><svg viewBox="0 0 217.30752799895242 206.12237866249512"
    height="206.12237866249512" width="217.30752799895242"><g><svg xmlns="http://www.w3.org/2000/svg" xmlns:xlink="http://www.w3.org/1999/xlink"
     version="1.1" x="0" y="0" viewBox="2.487 4.674417679769482 85.02600000000001 80.64958232023052" enable-background="new 0 0 90 90" 
     xml:space="preserve" height="206.12237866249512" width="217.30752799895242" class="icon-icon-0" data-fill-palette-color="accent" 
     id="icon-0"><path d="M58.478 26.77H21.38C16.198 26.77 11.957 31.01 11.957 36.193V62.115C11.957 67.298 16.197 71.538 21.38 71.538H58.479C63.661 71.538 67.902 67.298 67.902 62.115V36.193C67.901 31.011 63.661 26.77 58.478 26.77M24.768 31.67C21.155 33.606 18.547 36.441 16.914 38.638 16.295 39.471 14.975 38.889 15.178 37.872 16.422 31.657 20.831 30.089 24.237 29.848 25.277 29.774 25.687 31.178 24.768 31.67M71.426 17.292H57.717A20.6 20.6 0 0 0 50.958 13.784L56.13 8.613A2.306 2.306 0 1 0 52.868 5.351L45.677 12.542A2.3 2.3 0 0 0 45.374 12.916C45.249 12.914 45.125 12.91 45 12.91S44.751 12.913 44.627 12.915A2.3 2.3 0 0 0 44.324 12.541L37.133 5.35A2.306 2.306 0 1 0 33.871 8.612L39.043 13.783A20.6 20.6 0 0 0 32.284 17.291H18.574C9.726 17.291 2.487 24.53 2.487 33.378V64.928C2.487 73.776 9.726 81.015 18.574 81.015H18.787V82.611A2.72 2.72 0 0 0 21.5 85.324H23.151A2.72 2.72 0 0 0 25.864 82.611V81.015H64.136V81.939A2.72 2.72 0 0 0 66.849 84.652H68.5A2.72 2.72 0 0 0 71.213 81.939V81.015H71.426C80.274 81.015 87.513 73.776 87.513 64.928V33.378C87.513 24.531 80.274 17.292 71.426 17.292M20.276 74.958C13.903 74.958 8.69 69.744 8.69 63.372V35.163C8.69 28.79 13.904 23.577 20.276 23.577H59.582C65.955 23.577 71.169 28.791 71.169 35.163V63.372C71.169 69.745 65.955 74.958 59.582 74.958zM79.019 59.404A2.562 2.562 0 1 1 79.019 54.28 2.562 2.562 0 0 1 79.019 59.404M79.019 51.717A2.562 2.562 0 1 1 79.019 46.593 2.562 2.562 0 0 1 79.019 51.717M79.019 44.029A2.562 2.562 0 1 1 79.019 38.905 2.562 2.562 0 0 1 79.019 44.03" fill="#ffc107b9" data-fill-palette-color="accent"></path></svg></g></svg></g></svg></g><defs></defs></svg><rect width="395.5199999999999" height="129.11570831956183" fill="none" stroke="none" visibility="hidden"></rect></g></svg></g>
     </svg>